<svg width="48" height="39" xmlns="http://www.w3.org/2000/svg"><g fill="none" fill-rule="evenodd"><path d="M0 0h48v38.61H0z"/><path d="M46.191 17.97l-2.85 1.876c-.375.225-.824.15-1.049-.225L33.667 6.646c-.226-.375-.15-.825.225-1.05l2.85-1.875c.374-.225.824-.15 1.05.225l8.7 12.975c.15.375 0 .825-.3 1.05m-6.6.3c.075.375.3 1.575-.75 3.15l-10.8-9c-.6-.45-1.426-.6-2.1-.375-2.55.9-1.65 2.25-4.95 2.55-1.2.075-2.55-.375-2.4-1.575.15-.975.824-1.725 1.95-2.325l.074-.075c.075 0 4.05-2.925 7.276-1.575.15.075 3.15 1.425 6.15.9.6.9-2.025-3 5.55 8.325m-.675 6.75c-.45.6-1.275.75-1.875.375l-5.476-3.825c-.075-.075-.225-.075-.375-.15-.225 0-.524.075-.674.3-.225.3-.15.825.15 1.05l4.574 3.225c1.5 1.05-.074 3.3-1.574 2.25l-4.125-2.925c-.375-.225-.826-.15-1.05.15-.225.375-.15.825.15 1.05l4.125 2.925c.6.45.75 1.275.375 1.95-.45.6-1.276.825-1.95.375-.45-.3-3.9-2.625-3.675-2.475l-.375-.225c-.375-.225-.826-.15-1.05.225-.15.225-.15.6 0 .825.15.225.3.225.675.525 2.1 1.575 3.3 1.725 3.3 2.925 0 1.05-1.2 1.8-2.175 1.125l-1.35-.975c-.45-1.5-2.025-2.475-3.525-2.325.15-1.2-.375-2.475-1.426-3.15-.9-.6-1.65-.525-1.8-.525.675-1.425.15-3.225-1.2-4.125-.525-.375-1.199-.525-1.875-.525.525-1.425.075-3.075-1.275-3.975-1.5-.975-3.6-.6-4.575.9l-.974 1.425c-.676-.525-1.576-1.35-2.4-2.25l9-12.3c1.65.6 3.224 1.35 4.275 2.025-.526.3-.9.525-1.05.675-1.876.975-2.476 2.325-2.7 3.3-.3 1.875 1.35 3.525 3.974 3.3 3.6-.3 3.526-1.95 5.325-2.625a.719.719 0 0 1 .675.15c12.45 10.125 11.475 9.375 11.551 9.375.674.45.824 1.35.375 1.95m-13.95 10.575l-.526.75c-.525.75-1.65.975-2.4.525l-.149-.075c-.826-.525-1.05-1.575-.526-2.4.075-.075.75-1.05.675-.975 1.575-1.575 4.126.45 2.925 2.175m-7.199-1.575c-.826-.525-1.05-1.65-.526-2.475l1.125-1.5c1.35-2.025 4.35 0 3.075 1.95-.75.975-.525.75-1.049 1.5-.676.75-1.875 1.05-2.625.525m-4.35-2.85c-.826-.525-1.05-1.65-.525-2.475l2.324-3.375c.525-.825 1.65-1.05 2.551-.525.824.525 1.05 1.65.524 2.475l-2.325 3.375c-.525.825-1.725 1.05-2.55.525m-4.274-2.85c-.826-.525-1.05-1.65-.526-2.475l3.526-5.1c.524-.825 1.65-1.05 2.55-.525.825.6 1.05 1.725.524 2.475l-3.525 5.1c-.525.825-1.725 1.05-2.549.525m-4.65-8.925l-2.626-1.95c-.375-.3-.45-.75-.15-1.125L12.291 1.77c.3-.375.75-.45 1.125-.15l2.625 1.95c.375.225.45.75.15 1.125L5.616 19.17c-.3.375-.825.45-1.125.225m43.125-3.3L38.917 3.12a2.21 2.21 0 0 0-3.15-.6l-2.776 1.8c-1.05.675-1.275 2.1-.599 3.15l.75 1.125c-2.326.15-4.576-.825-4.576-.9-2.174-.9-4.5-.375-6.225.3-1.199-.975-3.15-1.95-4.875-2.55.676-1.05.45-2.4-.525-3.15L14.241.42c-.974-.75-2.474-.45-3.224.525L.441 15.42c-.75 1.05-.525 2.475.525 3.225l2.625 1.95c.375.3.9.45 1.35.45.675 0 1.201-.3 1.65-.75.9.9 1.801 1.725 2.475 2.25l-1.65 2.4c-.975 1.5-.6 3.6.976 4.575.824.525 1.8.675 2.85.375.074.975.6 1.875 1.424 2.475.525.375 1.2.525 1.8.525.375 0 .676-.075.975-.15.076.975.6 1.875 1.425 2.475.526.375 1.2.525 1.8.525.3 0 .675-.075.976-.15.074.9.6 1.8 1.424 2.4l.15.075c1.5.975 3.525.6 4.5-.9.375-.6.676-.825.9-1.65l.45.3c1.275.9 3.076.6 3.976-.75.3-.45.524-1.05.524-1.65 1.05.15 2.175-.3 2.775-1.2.451-.6.6-1.425.451-2.325.9-.15 1.574-.6 2.024-1.2a2.7 2.7 0 0 0 .525-1.65c1.051.15 2.176-.3 2.775-1.2.676-1.05.676-2.4-.15-3.45.525-.75.826-1.425.975-2.025l.076.15a2.209 2.209 0 0 0 3.15.6l2.85-1.875c1.05-.675 1.275-2.1.6-3.15" fill="#00B22D"/><path fill="#00B22D" fill-rule="nonzero" opacity=".2" d="M17.436 3.885L13.329 1l-2.347 1.814L1 16.763l1.832 2.526 2.385 1.255 1.814-.783 3.09 2.877 2.117-2.354 2.112-.523 1.919.783v3.4l1.876.747 1.71 2.001-.94 1.75 2.736.806 1.234 2.012-.643 1.693 2.043-.326 1.76 1.046.586 1.547 2.495.78 1.478-1.159.49-1.888 1.929-.326 1.073-1.762v-1.142l2.004-.975.887-2.056 1.987-.576L40 23.945l-2.236-2.18-10.697-8.49-2.782 1.138-2.634 1.302-3.506-.628-.71-1.812 4.216-3.744-.258-1.185-3.248-.952-1.375-1.108z"/></g></svg>